<svg width="15" height="9" viewBox="0 0 15 9" fill="none" xmlns="http://www.w3.org/2000/svg">
<path fill-rule="evenodd" clip-rule="evenodd" d="M10.2103 0.139168L3.66648 6.87477L0.789354 3.93575C0.608904 3.75019 0.315787 3.75019 0.135337 3.93575C-0.0451125 4.1213 -0.0451125 4.42171 0.135337 4.60679L3.34084 7.88086C3.51946 8.06405 3.8167 8.06405 3.99532 7.88086L10.8643 0.810213C11.0452 0.62513 11.0452 0.324251 10.8643 0.139168C10.6839 -0.0463894 10.3908 -0.0463894 10.2103 0.139168Z" fill="#0C8FE4"/>
<path fill-rule="evenodd" clip-rule="evenodd" d="M14.2103 0.139168L7.66647 6.87477L6.94213 6.20373C6.76168 6.01817 6.46852 6.01817 6.28807 6.20373C6.10762 6.38928 6.10766 6.68969 6.28811 6.87477L7.34083 7.88086C7.51945 8.06405 7.81669 8.06405 7.99531 7.88086L14.8643 0.810213C15.0452 0.62513 15.0452 0.324251 14.8643 0.139168C14.6839 -0.0463894 14.3907 -0.0463894 14.2103 0.139168Z" fill="#0C8FE4"/>
</svg>
